<?xml version="1.0" encoding="utf-8"?>
<!-- Generator: Adobe Illustrator 17.0.0, SVG Export Plug-In . SVG Version: 6.00 Build 0)  -->
<!DOCTYPE svg PUBLIC "-//W3C//DTD SVG 1.1//EN" "http://www.w3.org/Graphics/SVG/1.1/DTD/svg11.dtd">
<svg version="1.1" id="Layer_1" xmlns="http://www.w3.org/2000/svg" xmlns:xlink="http://www.w3.org/1999/xlink" x="0px" y="0px"
	 width="1224px" height="1512px" viewBox="0 0 1224 1512" enable-background="new 0 0 1224 1512" xml:space="preserve">
<circle fill="#204289" stroke="#FFFFFF" stroke-miterlimit="10" cx="650.819" cy="801.545" r="445.455"/>
<ellipse fill="none" stroke="#FFFFFF" stroke-width="22.0048" stroke-miterlimit="10" cx="665.591" cy="1028.817" rx="485.227" ry="156.819"/>
<ellipse fill="none" stroke="#FFFFFF" stroke-width="15.9514" stroke-miterlimit="10" cx="651.281" cy="1017.312" rx="358.598" ry="111.506"/>
<ellipse fill="none" stroke="#FFFFFF" stroke-width="11.9455" stroke-miterlimit="10" cx="651.281" cy="1008.992" rx="276.201" ry="81.189"/>
<ellipse fill="none" stroke="#FFFFFF" stroke-width="13" stroke-miterlimit="10" cx="650.818" cy="988.364" rx="151.526" ry="40.454"/>
<circle fill="#476CB3" cx="651.282" cy="846.318" r="142.045"/>
<path fill="#476CB3" d="M513.96,809.888c0,0,11.858-138.407,136.858-254.888l0.463,254.888H513.96z"/>
<path fill="#476CB3" d="M788.139,809.888c0,0-11.857-138.407-136.857-254.888l-0.463,254.888H788.139z"/>
<ellipse transform="matrix(0.8249 -0.5652 0.5652 0.8249 -412.4752 477.7963)" fill="#FFFFFF" cx="565.108" cy="904.791" rx="17.514" ry="32.79"/>
<ellipse fill="#FFFFFF" cx="541.606" cy="846.318" rx="11.75" ry="9.865"/>
<text transform="matrix(1 0 0 1 333.104 673.4443)" fill="#231F20" font-family="'ChunkFive-Roman'" font-size="250">K</text>
<text transform="matrix(1 0 0 1 321.105 691.4438)" fill="#FFFFFF" font-family="'ChunkFive-Roman'" font-size="250">K</text>
<text transform="matrix(1 0 0 1 529.8564 594.0986)" fill="#231F20" font-family="'ChunkFive-Roman'" font-size="250">W</text>
<text transform="matrix(1 0 0 1 529.96 616.5977)" fill="#FFFFFF" font-family="'ChunkFive-Roman'" font-size="250">W</text>
<rect x="793.326" y="493.604" fill="none" width="176.992" height="221.989"/>
<text transform="matrix(1 0 0 1 793.3267 681.1035)" fill="#231F20" font-family="'ChunkFive-Roman'" font-size="250">P</text>
<rect x="815.825" y="505.604" fill="none" width="176.992" height="221.989"/>
<text transform="matrix(1 0 0 1 815.8257 693.1035)" fill="#FFFFFF" font-family="'ChunkFive-Roman'" font-size="250">P</text>
</svg>
